<svg width="449" height="300" viewBox="0 0 449 300" fill="none" xmlns="http://www.w3.org/2000/svg">
<path d="M328.929 241.764C328.929 243.042 328.365 244.282 327.571 245.665C326.825 246.966 325.814 248.478 325.319 250.007L327.222 250.623C327.631 249.357 328.449 248.155 329.306 246.66C330.116 245.248 330.929 243.61 330.929 241.764H328.929ZM325.319 250.007C324.825 251.532 324.74 253.362 324.572 254.865C324.393 256.466 324.121 257.789 323.406 258.77L325.023 259.948C326.076 258.504 326.379 256.703 326.56 255.087C326.752 253.373 326.811 251.893 327.222 250.623L325.319 250.007ZM323.406 258.77C322.691 259.752 321.526 260.403 320.082 261.066C318.729 261.688 317.051 262.344 315.813 263.353L317.076 264.904C318.058 264.104 319.382 263.588 320.916 262.884C322.36 262.221 323.971 261.392 325.023 259.948L323.406 258.77ZM315.813 263.353C314.634 264.314 313.492 265.735 312.466 266.832C311.371 268.003 310.326 268.915 309.144 269.304L309.768 271.204C311.464 270.647 312.802 269.401 313.927 268.198C315.121 266.921 316.035 265.752 317.076 264.904L315.813 263.353ZM309.144 269.304C307.981 269.686 306.684 269.531 305.132 269.199C303.666 268.885 301.907 268.391 300.206 268.391V270.391C301.629 270.391 303.056 270.8 304.714 271.155C306.287 271.491 308.053 271.767 309.768 271.204L309.144 269.304ZM300.206 268.391C298.508 268.391 296.735 268.873 295.253 269.183C293.682 269.511 292.386 269.666 291.263 269.302L290.648 271.205C292.321 271.747 294.088 271.469 295.662 271.14C297.325 270.792 298.779 270.391 300.206 270.391V268.391ZM291.263 269.302C290.143 268.94 289.158 268.03 288.062 266.826C287.034 265.697 285.874 264.259 284.547 263.314L283.387 264.943C284.484 265.724 285.421 266.896 286.583 268.173C287.676 269.374 288.973 270.663 290.648 271.205L291.263 269.302ZM284.547 263.314C283.231 262.377 281.523 261.726 280.149 261.097C278.688 260.428 277.517 259.755 276.799 258.77L275.183 259.948C276.233 261.389 277.837 262.238 279.316 262.915C280.881 263.632 282.277 264.153 283.387 264.943L284.547 263.314ZM276.799 258.77C276.085 257.791 275.823 256.489 275.649 254.898C275.485 253.4 275.401 251.573 274.886 250.003L272.985 250.627C273.415 251.935 273.475 253.417 273.661 255.115C273.836 256.72 274.129 258.503 275.183 259.948L276.799 258.77ZM274.886 250.003C274.365 248.419 273.293 246.904 272.502 245.61C271.66 244.233 271.071 243.024 271.071 241.764H269.071C269.071 243.628 269.942 245.256 270.795 246.653C271.7 248.134 272.56 249.333 272.985 250.627L274.886 250.003ZM271.071 241.764C271.071 240.485 271.635 239.246 272.429 237.862C273.175 236.562 274.187 235.05 274.681 233.52L272.779 232.905C272.369 234.171 271.551 235.373 270.694 236.867C269.884 238.28 269.071 239.918 269.071 241.764H271.071ZM274.681 233.52C275.175 231.995 275.26 230.165 275.428 228.663C275.607 227.061 275.879 225.738 276.594 224.757L274.977 223.579C273.925 225.024 273.621 226.825 273.44 228.44C273.248 230.155 273.189 231.634 272.779 232.905L274.681 233.52ZM276.594 224.757C277.308 223.777 278.472 223.125 279.938 222.464C281.318 221.841 283.031 221.191 284.359 220.201L283.163 218.598C282.065 219.416 280.675 219.937 279.115 220.641C277.642 221.305 276.031 222.134 274.977 223.579L276.594 224.757ZM284.359 220.201C285.68 219.216 286.776 217.776 287.755 216.678C288.793 215.515 289.779 214.617 291.043 214.23L290.457 212.318C288.637 212.876 287.342 214.136 286.263 215.347C285.124 216.623 284.268 217.774 283.163 218.598L284.359 220.201ZM291.043 214.23C292.323 213.837 293.637 214 295.147 214.328C296.585 214.64 298.296 215.137 300 215.137V213.137C298.579 213.137 297.208 212.729 295.572 212.373C294.009 212.034 292.26 211.765 290.457 212.318L291.043 214.23ZM300 215.137C301.698 215.137 303.471 214.655 304.953 214.345C306.524 214.016 307.82 213.862 308.942 214.225L309.558 212.322C307.885 211.781 306.118 212.058 304.544 212.387C302.881 212.735 301.426 213.137 300 213.137V215.137ZM308.942 214.225C310.065 214.588 311.049 215.498 312.177 216.71C313.241 217.851 314.45 219.287 315.896 220.235L316.993 218.563C315.808 217.785 314.818 216.61 313.641 215.346C312.529 214.153 311.231 212.863 309.558 212.322L308.942 214.225ZM315.896 220.235C317.292 221.151 318.986 221.8 320.334 222.428C321.757 223.091 322.888 223.764 323.612 224.757L325.228 223.579C324.184 222.147 322.643 221.298 321.179 220.615C319.638 219.897 318.228 219.374 316.993 218.563L315.896 220.235ZM323.612 224.757C324.326 225.737 324.588 227.038 324.762 228.629C324.926 230.128 325.01 231.955 325.526 233.525L327.426 232.9C326.996 231.593 326.936 230.11 326.75 228.412C326.575 226.807 326.282 225.025 325.228 223.579L323.612 224.757ZM325.526 233.525C326.035 235.075 326.981 236.575 327.676 237.869C328.409 239.233 328.929 240.465 328.929 241.764H330.929C330.929 239.938 330.196 238.333 329.438 236.923C328.643 235.442 327.862 234.228 327.426 232.9L325.526 233.525Z" fill="#56463E"/>
<path d="M300 254.097C306.812 254.097 312.334 248.575 312.334 241.764C312.334 234.952 306.812 229.43 300 229.43C293.189 229.43 287.667 234.952 287.667 241.764C287.667 248.575 293.189 254.097 300 254.097Z" stroke="#56463E" stroke-width="2" stroke-linecap="round" stroke-linejoin="round"/>
<path d="M274.552 255.783V255.824L263 278.764L275.416 278.641L283.556 286.986L291.819 270.459" stroke="#56463E" stroke-width="2" stroke-linejoin="round"/>
<path d="M308.181 270.459L316.445 286.986L324.585 278.641L337 278.764L325.448 255.824V255.783" stroke="#56463E" stroke-width="2" stroke-linejoin="round"/>
<path d="M328.994 80.9936C328.997 84.3098 326.31 87 322.994 87H272.353C271.198 87 270.091 86.5414 269.275 85.7251C268.459 84.9087 268 83.8015 268 82.6471V17.3529C268 16.1985 268.459 15.0913 269.275 14.2749C270.091 13.4586 271.198 13 272.353 13H309.745C310.887 13.0048 311.981 13.4582 312.792 14.2624L327.679 29.1494C328.483 29.9602 328.936 31.0545 328.941 32.1965L328.994 80.9936Z" stroke="#56463E" stroke-width="2" stroke-linejoin="bevel"/>
<path d="M286 50.2222L294.222 58.4444L310.667 42" stroke="#56463E" stroke-width="2" stroke-linejoin="round"/>
<path d="M381.937 44.1983C381.937 42.3123 382.618 40.4885 383.856 39.0565L402.944 16.9757C404.647 15.0049 407.485 14.4366 409.827 15.5975C412.113 16.7309 413.211 19.3586 412.402 21.7628L405.843 41.2756H424.184C424.662 41.2756 425.139 41.3182 425.61 41.403C429.94 42.1836 432.811 46.2967 432.024 50.5899L426.953 78.2432C426.264 82 422.964 84.7308 419.113 84.7308H389.906C385.505 84.7308 381.937 81.1934 381.937 76.8298V44.1983Z" stroke="#56463E" stroke-width="2" stroke-linecap="square"/>
<path d="M366 80.7803V45.226" stroke="#56463E" stroke-width="2" stroke-linecap="square"/>
<path d="M199.644 13L170.126 20.4C169.214 20.6251 168.406 21.1558 167.838 21.9038C167.27 22.6518 166.974 23.572 167.002 24.5111L168.77 47.2044C169.406 55.433 172.283 63.3304 177.088 70.0409C181.892 76.7515 188.442 82.0192 196.026 85.2733L199.644 87" stroke="#56463E" stroke-width="2" stroke-linecap="round" stroke-linejoin="round"/>
<path d="M199.644 13L229.162 20.4C230.074 20.6251 230.881 21.1558 231.45 21.9038C232.018 22.6518 232.314 23.572 232.286 24.5111L230.518 47.2044C229.882 55.433 227.005 63.3304 222.2 70.0409C217.396 76.7515 210.846 82.0192 203.262 85.2733L199.644 87" stroke="#56463E" stroke-width="2" stroke-linecap="round" stroke-linejoin="round"/>
<path d="M187.311 45.8889L195.533 54.1111L211.977 37.6667" stroke="#56463E" stroke-width="2" stroke-linejoin="round"/>
<circle cx="24.5" cy="24.5" r="19.5" stroke="#56463E" stroke-width="2"/>
<path d="M17.6324 31.2979L31.299 17.6312" stroke="#56463E" stroke-width="2" stroke-linejoin="round"/>
<path d="M30.1595 31.2979C30.7885 31.2979 31.2984 30.788 31.2984 30.159C31.2984 29.53 30.7885 29.0201 30.1595 29.0201C29.5305 29.0201 29.0206 29.53 29.0206 30.159C29.0206 30.788 29.5305 31.2979 30.1595 31.2979Z" fill="#56463E" stroke="#56463E" stroke-miterlimit="10"/>
<path d="M18.7712 19.909C19.4002 19.909 19.9101 19.3991 19.9101 18.7701C19.9101 18.1411 19.4002 17.6312 18.7712 17.6312C18.1423 17.6312 17.6324 18.1411 17.6324 18.7701C17.6324 19.3991 18.1423 19.909 18.7712 19.909Z" fill="#56463E" stroke="#56463E" stroke-miterlimit="10"/>
<path d="M71.1422 15.9838V19.8587C71.1451 20.1435 71.0883 20.4257 70.9759 20.6857C70.8634 20.9457 70.6979 21.1773 70.4908 21.3647C70.2836 21.5522 70.0397 21.6908 69.7758 21.7713C69.5119 21.8517 69.2344 21.8719 68.9622 21.8306C65.1897 21.3286 61.6856 19.5409 59.0022 16.749C56.3187 13.9571 54.6084 10.3198 54.1407 6.41014C54.1009 6.12909 54.1202 5.84246 54.1973 5.56986C54.2744 5.29726 54.4074 5.04513 54.5873 4.83072C54.7672 4.61632 54.9897 4.44469 55.2396 4.3276C55.4894 4.2105 55.7608 4.1507 56.035 4.15228H59.719C59.9543 4.1508 60.1818 4.23967 60.3576 4.40172C60.5334 4.56377 60.645 4.78752 60.6709 5.02979C60.7654 6.32197 61.088 7.58521 61.6228 8.75673C61.7146 8.9786 61.7245 9.2276 61.6508 9.45656C61.5771 9.68552 61.4249 9.87854 61.223 9.99904L60.4044 10.4822C60.2864 10.5494 60.1835 10.6418 60.1025 10.7532C60.0215 10.8647 59.9643 10.9927 59.9346 11.1287C59.9049 11.2648 59.9034 11.4058 59.9303 11.5425C59.9571 11.6792 60.0116 11.8084 60.0902 11.9217C61.032 13.3505 62.2233 14.5844 63.6029 15.5599C63.7122 15.6413 63.837 15.6978 63.969 15.7256C64.1009 15.7533 64.2371 15.7518 64.3684 15.7211C64.4998 15.6903 64.6234 15.631 64.731 15.5472C64.8386 15.4633 64.9278 15.3567 64.9927 15.2345L65.4591 14.3866C65.5824 14.1747 65.7781 14.0186 66.0073 13.9492C66.2365 13.8798 66.4826 13.9022 66.6966 14.0119C67.8277 14.5658 69.0474 14.9 70.2949 14.9979C70.5288 15.0247 70.7449 15.1403 70.9013 15.3224C71.0578 15.5044 71.1436 15.7401 71.1422 15.9838Z" fill="#EE3E18"/>
<path d="M64.1429 4.20517C66.0035 4.20517 67.788 4.97074 69.1037 6.33346C70.4194 7.69618 71.1585 9.54443 71.1585 11.4716" stroke="#EE3E18" stroke-width="2"/>
<path d="M64.1429 9.39478C64.6745 9.39478 65.1843 9.61351 65.5603 10.0029C65.9362 10.3922 66.1473 10.9203 66.1473 11.4709" stroke="#EE3E18" stroke-width="2"/>
<path d="M94.2098 9.34255L87.6953 15.5709L81.1808 9.34255" stroke="#EE3E18" stroke-width="2" stroke-linejoin="round"/>
<path d="M24.5 95C35.8218 95 45 85.8218 45 74.5C45 63.1782 35.8218 54 24.5 54C13.1782 54 4 63.1782 4 74.5C4 85.8218 13.1782 95 24.5 95Z" stroke="#56463E" stroke-width="2" stroke-linecap="round" stroke-linejoin="round"/>
<path d="M31.3333 81.3333L17.6667 67.6667" stroke="#56463E" stroke-width="2"/>
<path d="M31.3333 67.6667L17.6667 81.3333" stroke="#56463E" stroke-width="2"/>
<circle cx="24.5" cy="124.5" r="19.5" stroke="#56463E" stroke-width="2"/>
<path d="M29.7021 121.302H32.9253C33.2103 121.302 33.4835 121.411 33.685 121.604C33.8865 121.797 33.9997 122.058 33.9997 122.331V130.565C33.9997 130.838 33.8865 131.099 33.685 131.292C33.4835 131.485 33.2103 131.594 32.9253 131.594H20.0324C19.7475 131.594 19.4742 131.485 19.2727 131.292C19.0712 131.099 18.958 130.838 18.958 130.565V127.713" stroke="#56463E" stroke-width="2" stroke-linecap="round" stroke-linejoin="round"/>
<path d="M28.2321 116.552H16.0179C15.4557 116.552 15 117.048 15 117.66V126.527C15 127.139 15.4557 127.635 16.0179 127.635H28.2321C28.7943 127.635 29.25 127.139 29.25 126.527V117.66C29.25 117.048 28.7943 116.552 28.2321 116.552Z" stroke="#56463E" stroke-width="2" stroke-linecap="round" stroke-linejoin="round"/>
<path d="M67 55L73 60.5L67 66" stroke="#56463E" stroke-width="2" stroke-linejoin="round"/>
<path d="M73 60.5H53" stroke="#56463E" stroke-width="2" stroke-linejoin="round"/>
<path d="M64 136.875C63.4477 136.875 62.9838 136.419 63.1067 135.881C63.9057 132.38 68.9939 132.159 71.6443 129.414C73.085 127.922 68.7628 127.922 68.7628 120.461C68.7628 115.488 70.6833 113 74.5257 113C78.368 113 80.2885 115.488 80.2885 120.461C80.2885 127.922 75.9664 127.922 77.4071 129.414C80.0574 132.159 85.1456 132.38 85.9446 135.881" stroke="#56463E" stroke-width="2" stroke-linecap="square"/>
<path d="M136.309 119.055H114C112.895 119.055 112 119.951 112 121.055V135.222C112 136.326 112.895 137.222 114 137.222H136.309C137.413 137.222 138.309 136.326 138.309 135.222V121.055C138.309 119.951 137.413 119.055 136.309 119.055Z" stroke="#56463E" stroke-width="2" stroke-linecap="square"/>
<path d="M131.001 119.055V115C131.001 113.895 130.105 113 129.001 113H121.308C120.204 113 119.308 113.895 119.308 115V119.055" stroke="#56463E" stroke-width="2" stroke-linecap="square"/>
<path d="M86 34L109 57.5L86 81" stroke="#56463E" stroke-width="2" stroke-linejoin="round"/>
<rect x="10" y="160" width="29.0692" height="30.1799" rx="1" stroke="#56463E" stroke-width="2"/>
<path d="M17 175.5L22 180L32 171" stroke="#56463E" stroke-width="2" stroke-linejoin="round"/>
<path d="M196 178C213.673 178 228 163.673 228 146C228 128.327 213.673 114 196 114C178.327 114 164 128.327 164 146C164 163.673 178.327 178 196 178Z" stroke="#56463E" stroke-width="2" stroke-linecap="round" stroke-linejoin="round"/>
<path d="M236 186L218.64 168.64" stroke="#56463E" stroke-width="2" stroke-linejoin="round"/>
<path d="M196 158V134" stroke="#56463E" stroke-width="2" stroke-linejoin="round"/>
<path d="M184 146H208" stroke="#56463E" stroke-width="2" stroke-linejoin="round"/>
<path d="M299 174.428L275.514 186.877L280 160.51L261 141.837L287.259 137.99L299 114L310.741 137.99L337 141.837L318 160.51L322.486 186.877L299 174.428Z" stroke="#56463E" stroke-width="2" stroke-linecap="square"/>
<path d="M398.5 187C419.211 187 436 170.211 436 149.5C436 128.789 419.211 112 398.5 112C377.789 112 361 128.789 361 149.5C361 170.211 377.789 187 398.5 187Z" stroke="#56463E" stroke-width="2" stroke-linecap="round" stroke-linejoin="round"/>
<path d="M398.5 128.667V149.5L406.833 162" stroke="#56463E" stroke-width="2" stroke-linejoin="round"/>
<path d="M224.857 237.857H175.143C172.855 237.857 171 239.712 171 242V283.429C171 285.717 172.855 287.571 175.143 287.571H224.857C227.145 287.571 229 285.717 229 283.429V242C229 239.712 227.145 237.857 224.857 237.857Z" stroke="#56463E" stroke-width="2" stroke-miterlimit="16" stroke-linecap="round"/>
<path d="M183.429 237.857V229.571C183.429 225.176 185.174 220.961 188.282 217.854C191.39 214.746 195.605 213 200 213V213C204.395 213 208.61 214.746 211.718 217.854C214.826 220.961 216.571 225.176 216.571 229.571V237.857" stroke="#56463E" stroke-width="2" stroke-linecap="round" stroke-linejoin="round"/>
<path d="M187.571 262.714L195.857 271L212.429 254.429" stroke="#56463E" stroke-width="2" stroke-linejoin="round"/>
<path d="M68.5662 43.0912C72.0809 39.5765 72.0809 33.878 68.5662 30.3633C65.0514 26.8486 59.3536 26.8493 55.8389 30.364C53.2141 32.9888 52.5495 36.8316 53.8452 40.0732C54.0711 41.3241 53.7176 42.3848 53.364 43.4454C53.0105 44.5061 53.0098 45.2126 53.3634 45.5661C53.7169 45.9197 54.424 45.9197 55.4847 45.5661C56.5453 45.2126 57.606 44.859 58.857 45.085C62.0986 46.3806 65.9413 45.7161 68.5662 43.0912Z" fill="#EE3E18"/>
<path d="M67.0001 38.2698V40.459C67.0018 40.62 66.9685 40.7794 66.9024 40.9263C66.8364 41.0732 66.7391 41.2041 66.6174 41.31C66.4957 41.4159 66.3524 41.4942 66.1974 41.5397C66.0424 41.5851 65.8793 41.5965 65.7194 41.5732C63.5031 41.2896 61.4445 40.2795 59.868 38.7021C58.2915 37.1247 57.2867 35.0696 57.012 32.8607C56.9886 32.7019 57 32.5399 57.0453 32.3859C57.0905 32.2319 57.1687 32.0894 57.2744 31.9683C57.3801 31.8472 57.5108 31.7502 57.6576 31.684C57.8044 31.6179 57.9638 31.5841 58.1249 31.585H60.2892C60.4274 31.5841 60.5611 31.6343 60.6643 31.7259C60.7676 31.8175 60.8332 31.9439 60.8484 32.0808C60.9039 32.8108 61.0934 33.5246 61.4076 34.1865C61.4615 34.3118 61.4674 34.4525 61.4241 34.5819C61.3808 34.7112 61.2914 34.8203 61.1728 34.8884L60.6918 35.1613C60.6225 35.1993 60.562 35.2515 60.5145 35.3145C60.4669 35.3775 60.4333 35.4498 60.4158 35.5266C60.3984 35.6035 60.3975 35.6832 60.4133 35.7604C60.429 35.8377 60.4611 35.9107 60.5073 35.9747C61.0605 36.782 61.7604 37.4791 62.5709 38.0302C62.6351 38.0762 62.7084 38.1081 62.7859 38.1238C62.8635 38.1395 62.9435 38.1387 63.0206 38.1213C63.0978 38.1039 63.1704 38.0704 63.2336 38.0231C63.2968 37.9757 63.3492 37.9155 63.3874 37.8464L63.6614 37.3673C63.7338 37.2476 63.8488 37.1594 63.9835 37.1202C64.1181 37.081 64.2627 37.0936 64.3884 37.1556C65.0529 37.4686 65.7694 37.6574 66.5024 37.7127C66.6398 37.7279 66.7667 37.7932 66.8586 37.896C66.9505 37.9989 67.0009 38.1321 67.0001 38.2698Z" fill="white"/>
<path d="M10 209V287.667L78.8333 248.333L10 209Z" stroke="#56463E" stroke-width="2" stroke-linecap="round" stroke-linejoin="round"/>
<path d="M113 12.5L118 17L128 8" stroke="#56463E" stroke-width="2" stroke-linejoin="round"/>
</svg>
